@startuml
!pragma layout smetana

package device_type {
class DeviceType<<entity>><<Root>> {
    - _deviceTypeID : DeviceTypeID
    - _description : Description
}

class DeviceDescription<<Value Object>> {
    - _description : String
}
class DeviceTypeID<<Value Object>> {
    - _deviceTypeID : String
}

DeviceType "*" -- "1" DeviceDescription : has
DeviceType "1" -- "1" DeviceTypeID : has

@enduml