@startuml
!pragma layout smetana

package SmartHome.sensors {

    class SwitchSensor {
        - final _sensorType : SensorType
        - _value : SwitchSensorValue
        + SwitchSensor(catalogue : CatalogueSensor)
        + getSensorType() : SensorType
        + getValue() : Value
    }

    class SwitchSensorValue implements SmartHome.domain.Value {
        - _bValue : boolean
        + SwitchSensorValue(bValue : boolean)
        + toString() : String
    }

}

package SmartHome.domain {

    interface Sensor {
        + getSensorType() : SensorType
        + getValue() : Value
    }

    class SensorType {
        - _description : String
        - _unit : Unit
        # SensorType(description : String, unit : Unit)
        + getDescription() : String
        + getUnit() : Unit
    }

    interface Value {
    }

    class CatalogueSensor {
        + getSensorType(description : String) : SensorType
    }
}

SmartHome.sensors.SwitchSensor ..|> SmartHome.domain.Sensor
SmartHome.sensors.SwitchSensor "1" --> "1" SmartHome.domain.SensorType : has a
SmartHome.sensors.SwitchSensor "1" --> "1" SmartHome.sensors.SwitchSensorValue : contains
SmartHome.sensors.SwitchSensor "1" ..> "1" SmartHome.domain.CatalogueSensor : uses
SmartHome.sensors.SwitchSensorValue ..|> SmartHome.domain.Value
@enduml