@startuml
!pragma layout smetana

package SmartHome.sensors {

    class DewPointSensor {
        - _sensorType : SensorType
        - _dewPointValue : DewPointValue

        + DewPointSensor (catalogue : CatalogueSensor)
        +getSensorType () : SensorType
        +getValue () : Value
    }

    class DewPointValue implements SmartHome.domain.Value {
        - _dewPoint : int

        + DewPointValue(dewPointValue : int)
        + toString() : String
    }

}

package SmartHome.domain {

    interface Sensor {
        + getSensorType() : SensorType
        + getValue() : Value
    }

    class SensorType {
    - final _strDescription : String
    - final _unit : Unit

    # SensorType(strDescription : String, unit : Unit)
    + getStrDescription() : String
    + getUnit() : Unit
    }

    interface Value {
    }

    class CatalogueSensor {
    - _listSensorType : List<SensorType>
    - _listStringClassesSensor : List<String>

    + CatalogueSensor(String filePathname)
    + addSensorType(String strDescription, Unit unit, SensorTypeFactory sensorTypeFactory) : SensorType
    + addSensorTypeToList(SensorType sensorType): SensorType
    + getSensorType(String strDescription): SensorType
    + getSensorTypes(): List<SensorType>
    + getSensorModels(): List<String>
    + getSensor(String strModel, SensorFactory sensorFactory): Sensor
    }
}

SmartHome.sensors.DewPointSensor  ..|>  SmartHome.domain.Sensor
SmartHome.sensors.DewPointSensor "1" --> "1" SmartHome.domain.SensorType : <<has>>
SmartHome.sensors.DewPointSensor "1" --> "1" SmartHome.sensors.DewPointValue : <<has>>
SmartHome.domain.CatalogueSensor "1" <.. "1" SmartHome.sensors.DewPointSensor : <<uses>>
SmartHome.sensors.DewPointValue  ..|>  SmartHome.domain.Value

@enduml