@startuml
!pragma layout smetana

package SmartHome.sensors {

  class SunsetTimeSensor {
    - _sensorType : SensorType
    - _latitude : double
    - _longitude : double
    - _sunsetTimeValue : SunsetTimeValue
    + SunsetTimeSensor(catalogue : CatalogueSensor)
    + getSensorType() : SensorType
    + getValue() : Value
    + getValue(LocalDate date) : Value
  }

  class SunsetTimeValue {
    - _value: LocalTime
    + SunsetTimeValue(LocalTime value)
    + toString() : String
  }

}

package SmartHome.domain {

  interface Sensor {
    + getSensorType() : SensorType
    + getValue() : Value
  }

  class SensorType {
    - _strDescription : String
    - _unit : Unit
    + SensorType(String strDescription, Unit unit)
    + getDescription() : String
    + getUnit() : Unit
  }

  interface Value {
  }

  class CatalogueSensor {
    + getSensorType(description : String) : SensorType
  }

}

SmartHome.sensors.SunsetTimeSensor ..|> SmartHome.domain.Sensor
SmartHome.sensors.SunsetTimeSensor "1"-->"1  "SmartHome.domain.SensorType : has
SmartHome.sensors.SunsetTimeSensor "1 "--> "1 " SmartHome.sensors.SunsetTimeValue : contains
SmartHome.sensors.SunsetTimeSensor --> SmartHome.domain.CatalogueSensor: uses
SmartHome.sensors.SunsetTimeValue ..|> SmartHome.domain.Value

@enduml
