@startuml
!pragma layout smetana

package domain.actuator {
    interface Actuator {
        + getActuatorID(): ActuatorID
        + setValue(Value value): Value
    }
    interface FactoryActuator {
        + createActuator(actuatorModelID: ActuatorModelID, repoActuator: RepoActuator): Actuator
    }
    class ImplFactoryActuator {
        + createActuator(actuatorModelID: ActuatorModelID, repoActuator: RepoActuator): Actuator
    }

    class SetDecimalActuator {
        - _actuatorID: ActuatorID
        - _actuatorTypeID: ActuatorTypeID
        - _actuatorModelID: ActuatorModelID
        - _deviceID: DeviceID
        - _value: SetDecimalValue
        - _lowerLimit: double
        - _upperLimit: double
        # SetDecimalActuator(actuatorTypeID: ActuatorTypeID, actuatorModelID: ActuatorModelID, deviceID: DeviceID, lowerLimit: double, upperLimit: double)
        + getActuatorTypeString(): String
        + getActuatorID(): ActuatorID
        + setValueInRange(Value value): Value
    }
}

package domain.value {
  class SetDecimalValue {
    - _value : double
    + SetDecimalValue(double  value)
    + clone() : SetDecimalValue
    + toString() : String
  }
}

package valueObject {
    class ActuatorTypeID {
        - _description: String
        + ActuatorTypeID(String strDescription)
        + getType() : String
    }

    class ActuatorModelID {
        - _description: String
        + ActuatorModelID(String strDescription)
        + getModel() : String
    }

    class ActuatorID {
        - _id: String
        + ActuatorID(String id)
        + getID() : String
    }

    class DeviceID {
        - _id: String
        + DeviceID(String id)
        + getID() : String
    }
}

package ddd {

  interface DomainEntity {
  }

  interface DomainID {
  }

  interface AggregateRoot {
  }
}

ImplFactoryActuator ..|> FactoryActuator
ImplFactoryActuator "1" ..> "1" SetDecimalActuator : creates

SetDecimalActuator ..|> Actuator
SetDecimalActuator "1" --> "1" SetDecimalValue : has
SetDecimalActuator "1" -->  "1" ActuatorTypeID : has
SetDecimalActuator "1" -->  "1" ActuatorModelID : has
SetDecimalActuator "1" -->  "1" ActuatorID : has
SetDecimalActuator "1" -->  "1" DeviceID : has

DomainEntity --|> DomainID
AggregateRoot --|> DomainEntity
AggregateRoot --|> DomainID

Actuator ..|> ddd.AggregateRoot

ActuatorTypeID ..|> ddd.DomainID
ActuatorModelID ..|> ddd.DomainID
ActuatorID ..|> ddd.DomainID

@enduml