@startuml
!pragma layout smetana

package SmartHome.sensors {

    class HumiditySensor {
        - final _sensorType : SensorType
        - _value : HumiditySensorValue
        + HumiditySensor(catalogue : CatalogueSensor)
        + getSensorType() : SensorType
        + getValue() : Value
    }

    class HumiditySensorValue implements SmartHome.domain.Value {
        - _dValue : double
        + HumiditySensorValue(dValue : double)
        + toString() : String
    }

}

package SmartHome.domain {

    interface Sensor {
        + getSensorType() : SensorType
        + getValue() : Value
    }

    class SensorType {
        - _description : String
        - _unit : Unit
        # SensorType(description : String, unit : Unit)
        + getDescription() : String
        + getUnit() : Unit
    }

    interface Value {
    }

    class CatalogueSensor {
        + getSensorType(description : String) : SensorType
    }
}

SmartHome.sensors.HumiditySensor ..|> SmartHome.domain.Sensor
SmartHome.sensors.HumiditySensor "1" --> "1" SmartHome.domain.SensorType : has a
SmartHome.sensors.HumiditySensor "1" --> "1" SmartHome.sensors.HumiditySensorValue : contains
SmartHome.sensors.HumiditySensor "1" ..> "1" SmartHome.domain.CatalogueSensor : uses
SmartHome.sensors.HumiditySensorValue ..|> SmartHome.domain.Value
@enduml